<svg viewBox="0 0 440 440" xmlns="http://www.w3.org/2000/svg">
  <defs>
    <linearGradient id="gradient" x1="0%" y1="0%" x2="100%" y2="0%">
      <stop offset="0%" stop-color="#27D0F2" stop-opacity="1" />
      <stop offset="100%" stop-color="#121212" stop-opacity="1" />
    </linearGradient>
  </defs><path d="M220,415.72795788209663C263.438016454682,412.7994180331209,276.30129624624925,354.53474997944943,306.90542150879145,323.56984829901637C332.9396505100022,297.22871505528826,379.09324197792415,285.6506686220206,384.7381611835989,249.04778256896842C390.37220597566545,212.5154085830855,351.18739667743364,186.94049581851172,332.9335512878933,154.79778376339445C314.4640583660083,122.27534368989909,310.3274493475305,79.55643132977815,277.900390022443,60.91998583572233C242.7653029713578,40.72718548981277,199.826584173512,47.38348112960084,160.11885346679244,55.477902048958754C112.9114176964047,65.10113784833942,57.53347415048426,70.6322551066065,31.473414212755827,111.15412494633337C5.11021609313574,152.14735693869602,14.801405636460643,207.78710258970506,33.121239800282744,252.95176754455733C48.898536407017836,291.8482067134069,91.02103988392109,308.42156254622114,122.67230713598515,335.99062762959545C155.2809011106378,364.3935488271946,176.85391238298925,418.6368162330676,220,415.72795788209663" fill="url(#gradient)" />
</svg>