<svg viewBox="0 0 440 440" xmlns="http://www.w3.org/2000/svg">
  <defs>
    <linearGradient id="gradient" x1="0%" y1="0%" x2="100%" y2="0%">
      <stop offset="0%" stop-color="#27D0F2" stop-opacity="1" />
      <stop offset="100%" stop-color="#121212" stop-opacity="1" />
    </linearGradient>
  </defs><path d="M220,360.77472691780287C256.98672299717055,363.15816708325434,296.14882989281784,368.05078251976073,327.02290704250896,347.5449339577862C359.9942343958914,325.6461402766765,374.8973545379041,287.05778287562174,387.4884931769274,249.53274030529798C402.580434714535,204.55461998563388,435.43710303615455,149.77841415257845,405.81635318358667,112.71887846962171C375.398758754388,74.6623832171604,312.86645999904215,105.48719319707153,265.0200892550097,96.30832135002937C229.47677964201608,89.48967494312085,200.1782268102543,63.84111814355952,164.07334494376548,66.34277808736793C116.61844737737215,69.63086574316952,57.397144022886835,71.193708767656,33.54000701959456,112.34727285966706C9.683579290506689,153.4996134535934,40.55250102093262,204.42236070546625,58.48708762419305,248.47908418465684C72.49136630874014,282.880916085173,93.46091387602749,313.25600538951346,123.95724659986274,334.4592964072533C152.05876507387708,353.99753661602506,185.84456397038844,358.5737360890746,220,360.77472691780287" fill="url(#gradient)" />
</svg>